<?xml version="1.0" encoding="utf-8"?>
<!DOCTYPE svg PUBLIC "-//W3C//DTD SVG 1.1//EN" "http://www.w3.org/Graphics/SVG/1.1/DTD/svg11.dtd">
<svg version="1.1" xmlns="http://www.w3.org/2000/svg" xmlns:xlink="http://www.w3.org/1999/xlink" x="0px" y="0px"
	 width="85px" height="149.244px" viewBox="0 0 85 149.244" enable-background="new 0 0 85 149.244" xml:space="preserve">
<g>
	<polygon fill="#E14B3E" points="53.206,0 74.616,0 61.77,21.414 76.758,21.414 48.923,55.672 56.633,29.98 42.5,29.98 	"/>
	<path fill="#E14B3E" d="M62.333,149.244v-19.976c0-4.958-2.03-8.83-6.091-11.616c9.963-0.897,17.248-3.424,21.852-7.58
		C82.698,105.917,85,99.329,85,90.31c0-6.989-2.148-12.869-6.446-17.638c0.85-2.55,1.275-5.006,1.275-7.367
		c0-3.494-0.803-6.706-2.408-9.634c-3.164,0-5.998,0.52-8.5,1.559c-2.502,1.039-5.572,2.833-9.208,5.383
		c-4.392-0.991-8.924-1.487-13.601-1.487c-5.334,0-10.317,0.543-14.945,1.629c-3.542-2.596-6.598-4.427-9.172-5.489
		c-2.574-1.063-5.49-1.594-8.749-1.594c-1.559,2.974-2.337,6.186-2.337,9.633c0,2.455,0.4,4.935,1.204,7.438
		C7.815,77.371,5.666,83.227,5.666,90.31c0,9.02,2.291,15.584,6.872,19.692c4.58,4.108,11.923,6.634,22.029,7.58
		c-2.692,1.793-4.557,4.415-5.597,7.861c-2.313,0.804-4.722,1.205-7.225,1.205c-1.889,0-3.518-0.424-4.887-1.274
		c-0.425-0.236-0.815-0.484-1.168-0.744c-0.355-0.26-0.721-0.579-1.098-0.956c-0.378-0.378-0.685-0.674-0.921-0.886
		c-0.236-0.212-0.543-0.578-0.921-1.098c-0.377-0.52-0.625-0.85-0.744-0.992c-0.118-0.142-0.401-0.519-0.85-1.133
		c-0.448-0.614-0.695-0.945-0.743-0.992c-2.22-2.928-4.864-4.392-7.934-4.392c-1.652,0-2.479,0.354-2.479,1.063
		c0,0.283,0.401,0.755,1.205,1.416c1.51,1.323,2.312,2.03,2.408,2.125c1.133,0.897,1.771,1.463,1.913,1.699
		c1.369,1.7,2.408,3.566,3.116,5.597c2.645,5.903,7.178,8.854,13.6,8.854c1.039,0,3.069-0.236,6.091-0.708v15.017"/>
</g>
</svg>
