<?xml version="1.0" encoding="utf-8"?>
<!-- Generator: Adobe Illustrator 18.1.0, SVG Export Plug-In . SVG Version: 6.00 Build 0)  -->
<svg version="1.1" xmlns="http://www.w3.org/2000/svg" xmlns:xlink="http://www.w3.org/1999/xlink" x="0px" y="0px" width="800px"
	 height="320px" viewBox="0 0 800 320" enable-background="new 0 0 800 320" xml:space="preserve">
<g id="Rectangle_1_1_" enable-background="new    ">
	<g id="Rectangle_1">
		<g>
			<rect fill="#081F3F" width="800" height="320"/>
		</g>
	</g>
</g>
<g id="SIS_Custom">
	<g>
		<path fill="#FFFFFF" d="M57.6,104.8c0-1.8-2-2.4-5.6-3.4c-4-1.1-8.8-2.9-8.8-8.4c0-5,3.7-8.4,10.4-8.4c4.3,0,7.6,1,10.2,2.4
			l-1.3,5.7c-2.7-1.4-6.1-2.4-8.8-2.4c-2.4,0-3.6,0.8-3.6,2.3c0,1.8,2.5,2.5,5.7,3.4c4.2,1.1,8.5,3,8.5,8.2c0,5.2-4,8.8-11.1,8.8
			c-4,0-8-1-10.5-2.5l1.3-5.7c2.7,1.4,6,2.5,9.3,2.5C55.9,107.3,57.6,106.4,57.6,104.8z"/>
		<path fill="#FFFFFF" d="M69,112.4V85.2h6.9v27.2H69z"/>
		<path fill="#FFFFFF" d="M94.8,104.8c0-1.8-2-2.4-5.6-3.4c-4-1.1-8.8-2.9-8.8-8.4c0-5,3.7-8.4,10.4-8.4c4.3,0,7.6,1,10.2,2.4
			l-1.3,5.7c-2.7-1.4-6.1-2.4-8.8-2.4c-2.4,0-3.6,0.8-3.6,2.3c0,1.8,2.5,2.5,5.7,3.4c4.2,1.1,8.5,3,8.5,8.2c0,5.2-4,8.8-11.1,8.8
			c-4,0-8-1-10.5-2.5l1.3-5.7c2.7,1.4,6,2.5,9.3,2.5C93.1,107.3,94.8,106.4,94.8,104.8z"/>
		<path fill="#FFFFFF" d="M136.6,92.4c-2-1.2-4.4-2-6.9-2c-4.7,0-7.7,3.2-7.7,8.3c0,5.2,2.9,8.4,7.8,8.4c2.7,0,5.1-0.9,7.2-2.2
			l1.4,6.1c-2.1,1.2-5.7,2-8.9,2c-8.7,0-14.5-5-14.5-14.1c0-8.8,5.7-14.4,14.7-14.4c3.3,0,6.5,0.8,9,2L136.6,92.4z"/>
		<path fill="#FFFFFF" d="M148.7,92.1v12c0,2.4,1,3.3,2.8,3.3c1.4,0,2.6-0.6,3.4-1.3V92.1h6.7v19.9l-6.7,0.8c0,0,0-3,0-3
			c-1.6,1.7-3.9,3.1-6.6,3.1c-4,0-6.4-2.7-6.4-7V92.1H148.7z"/>
		<path fill="#FFFFFF" d="M173.7,113c-2.8,0-6.4-0.7-8.6-1.8l1.3-4.8c2.4,1.2,5.1,1.9,7.4,1.9c1.8,0,2.7-0.6,2.7-1.7
			c0-1.1-1.1-1.6-3.4-2.1c-4.7-0.9-7.7-2.7-7.7-6.6c0-3.8,3.3-6.5,8.9-6.5c2.7,0,6.2,0.8,8.2,1.7l-1.3,4.8c-2.3-1.1-5.1-1.8-7-1.8
			c-1.6,0-2.5,0.5-2.5,1.5c0,1.1,1.3,1.5,3.5,2c4.8,1,7.6,2.6,7.6,6.7C182.9,110,179.6,113,173.7,113z"/>
		<path fill="#FFFFFF" d="M194.6,113c-5,0-7.7-2-7.4-7.4l0.3-7.7l-3-0.5l0.1-4.3l3-1l0.1-4.6h6.5l0,4.8h5l-0.1,5.3h-5.4l-0.2,7.3
			c-0.1,1.9,1,2.7,2.7,2.7c0.8,0,1.7-0.2,2.7-0.5l0.8,5.2C198,112.8,196.7,113,194.6,113z"/>
		<path fill="#FFFFFF" d="M212.3,113c-6.1,0-10.8-3.8-10.8-10.7s4.9-10.8,11-10.8c6.1,0,10.7,3.9,10.7,10.7
			C223.3,109,218.4,113,212.3,113z M212.4,96.6c-2.7,0-4.2,2.2-4.2,5.7c0,3.4,1.5,5.6,4.2,5.6s4.2-2.2,4.2-5.7
			C216.6,98.8,215.2,96.6,212.4,96.6z"/>
		<path fill="#FFFFFF" d="M252.5,112.4v-11.9c0-2.4-1-3.3-2.7-3.3c-1.3,0-2.5,0.6-3.3,1.3v1.2v12.7h-6.7v-11.9
			c0-2.4-1.1-3.3-2.8-3.3c-1.3,0-2.4,0.5-3.3,1.2v14H227V92.5l6.7-0.8c0,0,0,2.8,0,2.8c1.8-1.8,3.8-3,6.4-3c2.5,0,4.7,1.3,5.7,3.6
			c1.9-2.2,4.3-3.6,7-3.6c3.9,0,6.3,2.7,6.3,7v13.9H252.5z"/>
	</g>
</g>
<g id="SIS_Custom_Build">
	<g>
		<path fill="#FFFFFF" d="M451.5,104.8c0-1.8-2-2.4-5.6-3.4c-4-1.1-8.8-2.9-8.8-8.4c0-5,3.7-8.4,10.4-8.4c4.3,0,7.6,1,10.2,2.4
			l-1.3,5.7c-2.7-1.4-6.1-2.4-8.8-2.4c-2.4,0-3.6,0.8-3.6,2.3c0,1.8,2.5,2.5,5.7,3.4c4.2,1.1,8.5,3,8.5,8.2c0,5.2-4,8.8-11.1,8.8
			c-4,0-8-1-10.5-2.5l1.3-5.7c2.7,1.4,6,2.5,9.3,2.5C449.8,107.3,451.5,106.4,451.5,104.8z"/>
		<path fill="#FFFFFF" d="M462.9,112.4V85.2h6.9v27.2H462.9z"/>
		<path fill="#FFFFFF" d="M488.8,104.8c0-1.8-2-2.4-5.6-3.4c-4-1.1-8.8-2.9-8.8-8.4c0-5,3.7-8.4,10.4-8.4c4.3,0,7.6,1,10.2,2.4
			l-1.3,5.7c-2.7-1.4-6.1-2.4-8.8-2.4c-2.4,0-3.6,0.8-3.6,2.3c0,1.8,2.5,2.5,5.7,3.4c4.2,1.1,8.5,3,8.5,8.2c0,5.2-4,8.8-11.1,8.8
			c-4,0-8-1-10.5-2.5l1.3-5.7c2.7,1.4,6,2.5,9.3,2.5C487.1,107.3,488.8,106.4,488.8,104.8z"/>
		<path fill="#FFFFFF" d="M530.5,92.4c-2-1.2-4.4-2-6.9-2c-4.7,0-7.7,3.2-7.7,8.3c0,5.2,2.9,8.4,7.8,8.4c2.7,0,5.1-0.9,7.2-2.2
			l1.4,6.1c-2.1,1.2-5.7,2-8.9,2c-8.7,0-14.5-5-14.5-14.1c0-8.8,5.7-14.4,14.7-14.4c3.3,0,6.5,0.8,9,2L530.5,92.4z"/>
		<path fill="#FFFFFF" d="M542.7,92.1v12c0,2.4,1,3.3,2.8,3.3c1.4,0,2.6-0.6,3.4-1.3V92.1h6.7v19.9l-6.7,0.8c0,0,0-3,0-3
			c-1.6,1.7-3.9,3.1-6.6,3.1c-4,0-6.4-2.7-6.4-7V92.1H542.7z"/>
		<path fill="#FFFFFF" d="M567.6,113c-2.8,0-6.4-0.7-8.6-1.8l1.3-4.8c2.4,1.2,5,1.9,7.4,1.9c1.8,0,2.7-0.6,2.7-1.7
			c0-1.1-1.1-1.6-3.4-2.1c-4.7-0.9-7.7-2.7-7.7-6.6c0-3.8,3.3-6.5,8.9-6.5c2.7,0,6.2,0.8,8.2,1.7l-1.3,4.8c-2.3-1.1-5-1.8-7-1.8
			c-1.6,0-2.5,0.5-2.5,1.5c0,1.1,1.3,1.5,3.5,2c4.8,1,7.6,2.6,7.6,6.7C576.8,110,573.6,113,567.6,113z"/>
		<path fill="#FFFFFF" d="M588.6,113c-5,0-7.7-2-7.4-7.4l0.3-7.7l-3-0.5l0.1-4.3l3-1l0.1-4.6h6.5l0,4.8h5l-0.1,5.3h-5.4l-0.2,7.3
			c-0.1,1.9,1,2.7,2.7,2.7c0.8,0,1.7-0.2,2.7-0.5l0.8,5.2C591.9,112.8,590.6,113,588.6,113z"/>
		<path fill="#FFFFFF" d="M606.3,113c-6.1,0-10.8-3.8-10.8-10.7s4.9-10.8,11-10.8c6.1,0,10.7,3.9,10.7,10.7
			C617.3,109,612.4,113,606.3,113z M606.4,96.6c-2.7,0-4.2,2.2-4.2,5.7c0,3.4,1.5,5.6,4.2,5.6c2.7,0,4.2-2.2,4.2-5.7
			C610.6,98.8,609.1,96.6,606.4,96.6z"/>
		<path fill="#FFFFFF" d="M646.4,112.4v-11.9c0-2.4-1-3.3-2.7-3.3c-1.3,0-2.5,0.6-3.3,1.3v1.2v12.7h-6.7v-11.9
			c0-2.4-1.1-3.3-2.8-3.3c-1.3,0-2.4,0.5-3.3,1.2v14H621V92.5l6.7-0.8c0,0,0,2.8,0,2.8c1.8-1.8,3.8-3,6.4-3c2.5,0,4.7,1.3,5.7,3.6
			c1.9-2.2,4.3-3.6,7-3.6c3.9,0,6.3,2.7,6.3,7v13.9H646.4z"/>
		<path fill="#FFFFFF" d="M691.1,104.5c0,4.4-2.3,7.9-11,7.9h-11.9V85.2H680c8.1,0,10.3,3.1,10.3,7.1c0,3.1-1.9,5-5,5.9
			C688.7,98.8,691.1,101.1,691.1,104.5z M679.4,90.3c-0.5,0-4.4,0-4.4,0v6.3c0,0,4,0,4.1,0c2.9,0,4.4-1.2,4.4-3.2
			C683.4,91.4,682,90.3,679.4,90.3z M679.4,100.9c-0.2,0-4.4,0-4.4,0v6.3c0,0,4,0,4.7,0c3.1,0,4.6-1,4.6-3.1
			C684.1,101.8,682.3,100.9,679.4,100.9z"/>
		<path fill="#FFFFFF" d="M701.3,92.1v12c0,2.4,1,3.3,2.8,3.3c1.4,0,2.6-0.6,3.4-1.3V92.1h6.7v19.9l-6.7,0.8c0,0,0-3,0-3
			c-1.6,1.7-3.9,3.1-6.6,3.1c-4,0-6.4-2.7-6.4-7V92.1H701.3z"/>
		<path fill="#FFFFFF" d="M722.4,89.3c-2.4,0-4-1.3-4-3.6c0-2.4,1.5-3.6,4-3.6c2.5,0,4,1.3,4,3.6C726.4,88,724.9,89.3,722.4,89.3z
			 M719.1,112.4V92.5l6.7-0.8v20.7H719.1z"/>
		<path fill="#FFFFFF" d="M730.5,112.4V83.6l6.7-0.8v29.6H730.5z"/>
		<path fill="#FFFFFF" d="M755.3,83.6l6.7-0.8v29.6h-6.7c0,0,0-1.9,0-2.1c-1.3,1.3-3.1,2.7-5.7,2.7c-5,0-8.7-4.1-8.7-10.5
			c0-6.7,4.7-11,10.1-11c1.5,0,2.9,0.3,4.2,0.7V83.6z M752.2,96.5c-2.8,0-4.5,2.3-4.5,5.7c0,3.4,1.7,5.5,4.2,5.5
			c1.5,0,2.5-0.5,3.4-1.4c0,0.1,0-8.9,0-8.9C754.6,96.8,753.5,96.5,752.2,96.5z"/>
	</g>
</g>
<g id="arrow_1_" enable-background="new    ">
	<g id="arrow">
		<g>
			<polygon fill="#FFFFFF" points="362.9,72 347.9,72 369.1,93.5 313.1,93.5 313.1,104.3 369.1,104.3 347.9,125.9 362.9,125.9 
				389.3,98.9 			"/>
		</g>
	</g>
</g>
<g id="sass_1_">
	<g id="SASS_2_">
		<g>
			<path fill="#FFFFFF" d="M127.4,153.8c0-1.5-1.3-2.1-3-2.7c-1.5-0.5-3.2-1.2-3.2-3c0-1.7,1.5-2.9,3.4-2.9c1.3,0,2.4,0.4,3.2,0.9
				l-0.3,0.7c-0.8-0.6-1.9-0.9-2.9-0.9c-1.8,0-2.7,1.1-2.7,2.2c0,1.4,1.3,1.9,2.9,2.5c1.6,0.5,3.2,1.2,3.2,3.2
				c0,1.7-1.5,3.1-3.6,3.1c-1.4,0-2.5-0.4-3.4-1l0.3-0.6c0.8,0.6,1.9,1,3.2,1C126.2,156.2,127.4,155.1,127.4,153.8z"/>
			<path fill="#FFFFFF" d="M138.7,156.7H138l-1.3-3.5h-5.3l-1.3,3.5h-0.8l4.3-11.3h0.9L138.7,156.7z M134,146.1l-2.4,6.4h4.8
				L134,146.1z"/>
			<path fill="#FFFFFF" d="M146.2,153.8c0-1.5-1.3-2.1-3-2.7c-1.5-0.5-3.2-1.2-3.2-3c0-1.7,1.5-2.9,3.4-2.9c1.3,0,2.4,0.4,3.2,0.9
				l-0.3,0.7c-0.8-0.6-1.9-0.9-2.9-0.9c-1.8,0-2.7,1.1-2.7,2.2c0,1.4,1.3,1.9,2.9,2.5c1.6,0.5,3.2,1.2,3.2,3.2
				c0,1.7-1.5,3.1-3.6,3.1c-1.4,0-2.5-0.4-3.4-1l0.3-0.6c0.8,0.6,1.9,1,3.2,1C145.1,156.2,146.2,155.1,146.2,153.8z"/>
			<path fill="#FFFFFF" d="M154.8,153.8c0-1.5-1.3-2.1-3-2.7c-1.5-0.5-3.2-1.2-3.2-3c0-1.7,1.5-2.9,3.4-2.9c1.3,0,2.4,0.4,3.2,0.9
				l-0.3,0.7c-0.8-0.6-1.9-0.9-2.9-0.9c-1.8,0-2.7,1.1-2.7,2.2c0,1.4,1.3,1.9,2.9,2.5c1.6,0.5,3.2,1.2,3.2,3.2
				c0,1.7-1.5,3.1-3.6,3.1c-1.4,0-2.5-0.4-3.4-1l0.3-0.6c0.8,0.6,1.9,1,3.2,1C153.6,156.2,154.8,155.1,154.8,153.8z"/>
		</g>
	</g>
	<g id="SASS_1_">
		<g>
			<path fill="#FFFFFF" d="M151.4,172c0-1.5-1.3-2.1-3-2.7c-1.5-0.5-3.2-1.2-3.2-3c0-1.7,1.5-2.9,3.4-2.9c1.3,0,2.4,0.4,3.2,0.9
				l-0.3,0.7c-0.8-0.6-1.9-0.9-2.9-0.9c-1.8,0-2.7,1.1-2.7,2.2c0,1.4,1.3,1.9,2.9,2.5c1.6,0.5,3.2,1.2,3.2,3.2
				c0,1.7-1.5,3.1-3.6,3.1c-1.4,0-2.5-0.4-3.4-1l0.3-0.6c0.8,0.6,1.9,1,3.2,1C150.2,174.3,151.4,173.2,151.4,172z"/>
			<path fill="#FFFFFF" d="M162.7,174.8H162l-1.3-3.5h-5.3l-1.3,3.5h-0.8l4.3-11.3h0.9L162.7,174.8z M158,164.2l-2.4,6.4h4.8
				L158,164.2z"/>
			<path fill="#FFFFFF" d="M170.2,172c0-1.5-1.3-2.1-3-2.7c-1.5-0.5-3.2-1.2-3.2-3c0-1.7,1.5-2.9,3.4-2.9c1.3,0,2.4,0.4,3.2,0.9
				l-0.3,0.7c-0.8-0.6-1.9-0.9-2.9-0.9c-1.8,0-2.7,1.1-2.7,2.2c0,1.4,1.3,1.9,2.9,2.5c1.6,0.5,3.2,1.2,3.2,3.2
				c0,1.7-1.5,3.1-3.6,3.1c-1.4,0-2.5-0.4-3.4-1l0.3-0.6c0.8,0.6,1.9,1,3.2,1C169.1,174.3,170.2,173.2,170.2,172z"/>
			<path fill="#FFFFFF" d="M178.8,172c0-1.5-1.3-2.1-3-2.7c-1.5-0.5-3.2-1.2-3.2-3c0-1.7,1.5-2.9,3.4-2.9c1.3,0,2.4,0.4,3.2,0.9
				L179,165c-0.8-0.6-1.9-0.9-2.9-0.9c-1.8,0-2.7,1.1-2.7,2.2c0,1.4,1.3,1.9,2.9,2.5c1.6,0.5,3.2,1.2,3.2,3.2c0,1.7-1.5,3.1-3.6,3.1
				c-1.4,0-2.5-0.4-3.4-1l0.3-0.6c0.8,0.6,1.9,1,3.2,1C177.6,174.3,178.8,173.2,178.8,172z"/>
		</g>
	</g>
	<g id="SASS">
		<g>
			<path fill="#FFFFFF" d="M115.6,190.6c0-1.5-1.3-2.1-3-2.7c-1.5-0.5-3.2-1.2-3.2-3c0-1.7,1.5-2.9,3.4-2.9c1.3,0,2.4,0.4,3.2,0.9
				l-0.3,0.7c-0.8-0.6-1.9-0.9-2.9-0.9c-1.8,0-2.7,1.1-2.7,2.2c0,1.4,1.3,1.9,2.9,2.5c1.6,0.5,3.2,1.2,3.2,3.2
				c0,1.7-1.5,3.1-3.6,3.1c-1.4,0-2.5-0.4-3.4-1l0.3-0.6c0.8,0.6,1.9,1,3.2,1C114.5,193,115.6,191.9,115.6,190.6z"/>
			<path fill="#FFFFFF" d="M127,193.5h-0.8l-1.3-3.5h-5.3l-1.3,3.5h-0.8l4.3-11.3h0.9L127,193.5z M122.3,182.9l-2.4,6.4h4.8
				L122.3,182.9z"/>
			<path fill="#FFFFFF" d="M134.5,190.6c0-1.5-1.3-2.1-3-2.7c-1.5-0.5-3.2-1.2-3.2-3c0-1.7,1.5-2.9,3.4-2.9c1.3,0,2.4,0.4,3.2,0.9
				l-0.3,0.7c-0.8-0.6-1.9-0.9-2.9-0.9c-1.8,0-2.7,1.1-2.7,2.2c0,1.4,1.3,1.9,2.9,2.5c1.6,0.5,3.2,1.2,3.2,3.2
				c0,1.7-1.5,3.1-3.6,3.1c-1.4,0-2.5-0.4-3.4-1l0.3-0.6c0.8,0.6,1.9,1,3.2,1C133.3,193,134.5,191.9,134.5,190.6z"/>
			<path fill="#FFFFFF" d="M143.1,190.6c0-1.5-1.3-2.1-3-2.7c-1.5-0.5-3.2-1.2-3.2-3c0-1.7,1.5-2.9,3.4-2.9c1.3,0,2.4,0.4,3.2,0.9
				l-0.3,0.7c-0.8-0.6-1.9-0.9-2.9-0.9c-1.8,0-2.7,1.1-2.7,2.2c0,1.4,1.3,1.9,2.9,2.5c1.6,0.5,3.2,1.2,3.2,3.2
				c0,1.7-1.5,3.1-3.6,3.1c-1.4,0-2.5-0.4-3.4-1l0.3-0.6c0.8,0.6,1.9,1,3.2,1C141.9,193,143.1,191.9,143.1,190.6z"/>
		</g>
	</g>
</g>
<g id="image_1_">
	<g id="Image_2_">
		<g>
			<path fill="#FFFFFF" d="M197.1,203.2V192h0.8v11.3H197.1z"/>
			<path fill="#FFFFFF" d="M211,203.2v-5.5c0-1.5-0.6-2.3-1.9-2.3c-0.8,0-1.7,0.5-2.6,1.2c0.1,0.2,0.1,0.6,0.1,1v5.5h-0.7v-5.5
				c0-1.5-0.6-2.3-1.9-2.3c-0.8,0-1.7,0.4-2.5,1.1v6.7h-0.7V195l0.7-0.2c0,0,0,1.1,0,1.1c0.9-0.8,1.9-1.1,2.6-1.1
				c1.1,0,1.9,0.5,2.3,1.4c0.9-1,2.1-1.4,2.8-1.4c1.6,0,2.6,1,2.6,2.8v5.6H211z"/>
			<path fill="#FFFFFF" d="M218.8,202.1c-0.5,0.6-1.5,1.3-2.6,1.3c-1.5,0-2.6-0.9-2.6-2.2c0-1.5,1.3-2.7,5.1-2.9c0,0,0-0.7,0-0.8
				c0-1.3-0.6-2.1-2-2.1c-1,0-2.1,0.6-2.8,1.1l-0.2-0.7c0.8-0.5,2-1,3-1c1.6,0,2.7,0.8,2.7,2.7c0,0.1,0,4.5,0,4.5
				c0,0.5,0.1,0.9,0.9,0.9l-0.1,0.6C219.5,203.4,218.9,203,218.8,202.1L218.8,202.1z M218.7,198.8c-3.2,0.3-4.3,1.1-4.3,2.3
				c0,1,0.9,1.6,1.9,1.6c1,0,1.9-0.6,2.4-1.3V198.8z"/>
			<path fill="#FFFFFF" d="M221.5,201.9c0-0.7,0.7-1.2,1.3-1.5c-0.7-0.5-1.3-1.4-1.3-2.5c0-1.9,1.4-3.1,3.1-3.1
				c0.8,0,1.4,0.2,1.8,0.5l2.4-0.1l0.1,0.8l-2.1-0.1c0.5,0.5,0.8,1.3,0.8,2c0,1.9-1.4,3-3.1,3c-0.5,0-1-0.1-1.3-0.3
				c-0.5,0.3-1,0.6-1,1.1c0,0.5,0.5,0.9,1.9,0.9c0,0,1.5,0,1.4,0c2.3,0,3.3,0.9,3.3,2.1c0,1.8-2.1,2.9-4.2,2.9c-2.3,0-3.6-1-3.6-2.4
				c0-1,0.8-1.8,1.8-2.2C222,202.9,221.5,202.5,221.5,201.9z M221.6,205.2c0,1.1,1.1,1.9,3,1.9c1.9,0,3.5-1,3.5-2.2
				c0-1.1-0.9-1.5-2.6-1.5c-0.6,0-1.4,0-2,0C222.3,203.6,221.6,204.4,221.6,205.2z M224.6,200.3c1.4,0,2.3-1,2.3-2.4
				c0-1.4-0.8-2.4-2.3-2.4c-1.5,0-2.3,1.1-2.3,2.5C222.3,199.2,223.1,200.3,224.6,200.3z"/>
			<path fill="#FFFFFF" d="M230.5,199.1c0,2.1,1.2,3.6,3,3.6c0.9,0,1.7-0.3,2.3-0.7l0.2,0.7c-0.6,0.4-1.5,0.7-2.5,0.7
				c-2.3,0-3.7-1.8-3.7-4.3s1.5-4.3,3.7-4.3c1.6,0,2.9,1.1,2.9,2.8c0,0.4-0.1,0.9-0.2,1.3l-5.6,0V199.1z M235.5,198.3
				c0-0.2,0.1-0.4,0.1-0.6c0-1.3-0.8-2.2-2.1-2.2c-1.5,0-2.6,1.2-2.9,2.8H235.5z"/>
		</g>
	</g>
	<g id="Image_1_">
		<g>
			<path fill="#FFFFFF" d="M229.7,221.4v-11.3h0.8v11.3H229.7z"/>
			<path fill="#FFFFFF" d="M243.6,221.4v-5.5c0-1.5-0.6-2.3-1.9-2.3c-0.8,0-1.7,0.5-2.6,1.2c0.1,0.2,0.1,0.6,0.1,1v5.5h-0.7v-5.5
				c0-1.5-0.6-2.3-1.9-2.3c-0.8,0-1.7,0.4-2.5,1.1v6.7h-0.7v-8.2l0.7-0.2c0,0,0,1.1,0,1.1c0.9-0.8,1.9-1.1,2.6-1.1
				c1.1,0,1.9,0.5,2.3,1.4c0.9-1,2.1-1.4,2.8-1.4c1.6,0,2.6,1,2.6,2.8v5.6H243.6z"/>
			<path fill="#FFFFFF" d="M251.3,220.2c-0.5,0.6-1.5,1.3-2.6,1.3c-1.5,0-2.6-0.9-2.6-2.2c0-1.5,1.3-2.7,5.1-2.9c0,0,0-0.7,0-0.8
				c0-1.3-0.6-2.1-2-2.1c-1,0-2.1,0.6-2.8,1.1l-0.2-0.7c0.8-0.5,2-1,3-1c1.6,0,2.7,0.8,2.7,2.7c0,0.1,0,4.5,0,4.5
				c0,0.5,0.1,0.9,0.9,0.9l-0.1,0.6C252,221.5,251.4,221.2,251.3,220.2L251.3,220.2z M251.2,217c-3.2,0.3-4.3,1.1-4.3,2.3
				c0,1,0.9,1.6,1.9,1.6c1,0,1.9-0.6,2.4-1.3V217z"/>
			<path fill="#FFFFFF" d="M254,220c0-0.7,0.7-1.2,1.3-1.5c-0.7-0.5-1.3-1.4-1.3-2.5c0-1.9,1.4-3.1,3.1-3.1c0.8,0,1.4,0.2,1.8,0.5
				l2.4-0.1l0.1,0.8l-2.1-0.1c0.5,0.5,0.8,1.3,0.8,2c0,1.9-1.4,3-3.1,3c-0.5,0-1-0.1-1.3-0.3c-0.5,0.3-1,0.6-1,1.1
				c0,0.5,0.5,0.9,1.9,0.9c0,0,1.5,0,1.4,0c2.3,0,3.3,0.9,3.3,2.1c0,1.8-2.1,2.9-4.2,2.9c-2.3,0-3.6-1-3.6-2.4c0-1,0.8-1.8,1.8-2.2
				C254.5,221.1,254,220.6,254,220z M254.1,223.4c0,1.1,1.1,1.9,3,1.9c1.9,0,3.5-1,3.5-2.2c0-1.1-0.9-1.5-2.6-1.5c-0.6,0-1.4,0-2,0
				C254.9,221.7,254.1,222.5,254.1,223.4z M257.1,218.4c1.4,0,2.3-1,2.3-2.4c0-1.4-0.8-2.4-2.3-2.4c-1.5,0-2.3,1.1-2.3,2.5
				C254.8,217.3,255.7,218.4,257.1,218.4z"/>
			<path fill="#FFFFFF" d="M263.1,217.2c0,2.1,1.2,3.6,3,3.6c0.9,0,1.7-0.3,2.3-0.7l0.2,0.7c-0.6,0.4-1.5,0.7-2.5,0.7
				c-2.3,0-3.7-1.8-3.7-4.3c0-2.5,1.5-4.3,3.7-4.3c1.6,0,2.9,1.1,2.9,2.8c0,0.4-0.1,0.9-0.2,1.3l-5.6,0V217.2z M268.1,216.4
				c0-0.2,0.1-0.4,0.1-0.6c0-1.3-0.8-2.2-2.1-2.2c-1.5,0-2.6,1.2-2.9,2.8H268.1z"/>
		</g>
	</g>
	<g id="Image">
		<g>
			<path fill="#FFFFFF" d="M207.3,236.8v-11.3h0.8v11.3H207.3z"/>
			<path fill="#FFFFFF" d="M221.2,236.8v-5.5c0-1.5-0.6-2.3-1.9-2.3c-0.8,0-1.7,0.5-2.6,1.2c0.1,0.2,0.1,0.6,0.1,1v5.5H216v-5.5
				c0-1.5-0.6-2.3-1.9-2.3c-0.8,0-1.7,0.4-2.5,1.1v6.7h-0.7v-8.2l0.7-0.2c0,0,0,1.1,0,1.1c0.9-0.8,1.9-1.1,2.6-1.1
				c1.1,0,1.9,0.5,2.3,1.4c0.9-1,2.1-1.4,2.8-1.4c1.6,0,2.6,1,2.6,2.8v5.6H221.2z"/>
			<path fill="#FFFFFF" d="M228.9,235.7c-0.5,0.6-1.5,1.3-2.6,1.3c-1.5,0-2.6-0.9-2.6-2.2c0-1.5,1.3-2.7,5.1-2.9c0,0,0-0.7,0-0.8
				c0-1.3-0.6-2.1-2-2.1c-1,0-2.1,0.6-2.8,1.1l-0.2-0.7c0.8-0.5,2-1,3-1c1.6,0,2.7,0.8,2.7,2.7c0,0.1,0,4.5,0,4.5
				c0,0.5,0.1,0.9,0.9,0.9l-0.1,0.6C229.6,237,229,236.6,228.9,235.7L228.9,235.7z M228.8,232.4c-3.2,0.3-4.3,1.1-4.3,2.3
				c0,1,0.9,1.6,1.9,1.6c1,0,1.9-0.6,2.4-1.3V232.4z"/>
			<path fill="#FFFFFF" d="M231.6,235.5c0-0.7,0.7-1.2,1.3-1.5c-0.7-0.5-1.3-1.4-1.3-2.5c0-1.9,1.4-3.1,3.1-3.1
				c0.8,0,1.4,0.2,1.8,0.5l2.4-0.1l0.1,0.8l-2.1-0.1c0.5,0.5,0.8,1.3,0.8,2c0,1.9-1.4,3-3.1,3c-0.5,0-1-0.1-1.3-0.3
				c-0.5,0.3-1,0.6-1,1.1c0,0.5,0.5,0.9,1.9,0.9c0,0,1.5,0,1.4,0c2.3,0,3.3,0.9,3.3,2.1c0,1.8-2.1,2.9-4.2,2.9c-2.3,0-3.6-1-3.6-2.4
				c0-1,0.8-1.8,1.8-2.2C232.1,236.5,231.6,236.1,231.6,235.5z M231.7,238.8c0,1.1,1.1,1.9,3,1.9c1.9,0,3.5-1,3.5-2.2
				c0-1.1-0.9-1.5-2.6-1.5c-0.6,0-1.4,0-2,0C232.5,237.2,231.7,238,231.7,238.8z M234.7,233.9c1.4,0,2.3-1,2.3-2.4
				c0-1.4-0.8-2.4-2.3-2.4c-1.5,0-2.3,1.1-2.3,2.5C232.4,232.8,233.3,233.9,234.7,233.9z"/>
			<path fill="#FFFFFF" d="M240.7,232.7c0,2.1,1.2,3.6,3,3.6c0.9,0,1.7-0.3,2.3-0.7l0.2,0.7c-0.6,0.4-1.5,0.7-2.5,0.7
				c-2.3,0-3.7-1.8-3.7-4.3c0-2.5,1.5-4.3,3.7-4.3c1.6,0,2.9,1.1,2.9,2.8c0,0.4-0.1,0.9-0.2,1.3l-5.6,0V232.7z M245.7,231.9
				c0-0.2,0.1-0.4,0.1-0.6c0-1.3-0.8-2.2-2.1-2.2c-1.5,0-2.6,1.2-2.9,2.8H245.7z"/>
		</g>
	</g>
</g>
<g id="js_1_">
	<g id="JS_2_">
		<g>
			<path fill="#FFFFFF" d="M55.1,176.7c-1,0-2-0.4-2.5-0.7l0.2-0.7c0.7,0.5,1.6,0.8,2.4,0.8c1.7,0,2.6-1.1,2.6-3v-7.7h0.8v7.8
				C58.5,175.3,57.4,176.7,55.1,176.7z"/>
			<path fill="#FFFFFF" d="M66.7,173.7c0-1.5-1.3-2.1-3-2.7c-1.5-0.5-3.2-1.2-3.2-3c0-1.7,1.5-2.9,3.4-2.9c1.3,0,2.4,0.4,3.2,0.9
				l-0.3,0.7c-0.8-0.6-1.9-0.9-2.9-0.9c-1.8,0-2.7,1.1-2.7,2.2c0,1.4,1.3,1.9,2.9,2.5c1.6,0.5,3.2,1.2,3.2,3.2
				c0,1.7-1.5,3.1-3.6,3.1c-1.4,0-2.5-0.4-3.4-1l0.3-0.6c0.8,0.6,1.9,1,3.2,1C65.5,176,66.7,175,66.7,173.7z"/>
		</g>
	</g>
	<g id="JS_1_">
		<g>
			<path fill="#FFFFFF" d="M35.6,194c-1,0-2-0.4-2.5-0.7l0.2-0.7c0.7,0.5,1.6,0.8,2.4,0.8c1.7,0,2.6-1.1,2.6-3v-7.7h0.8v7.8
				C38.9,192.6,37.9,194,35.6,194z"/>
			<path fill="#FFFFFF" d="M47.2,191c0-1.5-1.3-2.1-3-2.7c-1.5-0.5-3.2-1.2-3.2-3c0-1.7,1.5-2.9,3.4-2.9c1.3,0,2.4,0.4,3.2,0.9
				l-0.3,0.7c-0.8-0.6-1.9-0.9-2.9-0.9c-1.8,0-2.7,1.1-2.7,2.2c0,1.4,1.3,1.9,2.9,2.5c1.6,0.5,3.2,1.2,3.2,3.2
				c0,1.7-1.5,3.1-3.6,3.1c-1.4,0-2.5-0.4-3.4-1l0.3-0.6c0.8,0.6,1.9,1,3.2,1C46,193.3,47.2,192.2,47.2,191z"/>
		</g>
	</g>
	<g id="JS">
		<g>
			<path fill="#FFFFFF" d="M62.5,208.5c-1,0-2-0.4-2.5-0.7l0.2-0.7c0.7,0.5,1.6,0.8,2.4,0.8c1.7,0,2.6-1.1,2.6-3V197h0.8v7.8
				C65.9,207,64.8,208.5,62.5,208.5z"/>
			<path fill="#FFFFFF" d="M74.1,205.4c0-1.5-1.3-2.1-3-2.7c-1.5-0.5-3.2-1.2-3.2-3c0-1.7,1.5-2.9,3.4-2.9c1.3,0,2.4,0.4,3.2,0.9
				l-0.3,0.7c-0.8-0.6-1.9-0.9-2.9-0.9c-1.8,0-2.7,1.1-2.7,2.2c0,1.4,1.3,1.9,2.9,2.5c1.6,0.5,3.2,1.2,3.2,3.2
				c0,1.7-1.5,3.1-3.6,3.1c-1.4,0-2.5-0.4-3.4-1l0.3-0.6c0.8,0.6,1.9,1,3.2,1C72.9,207.8,74.1,206.7,74.1,205.4z"/>
		</g>
	</g>
</g>
<g id="Concatenate_Minimize_Auto-prefix_Precompile_Optimize_1_">
	<g id="Concatenate_Minimize_Auto-prefix_Precompile_Optimize">
		<path fill="#FFFFFF" d="M310.3,147.3c-0.9-0.6-1.9-0.9-3-0.9c-2.2,0-3.7,1.5-3.7,4c0,2.5,1.4,4.1,3.7,4.1c1.2,0,2.3-0.4,3.1-1
			l0.4,2c-0.9,0.5-2.3,0.9-3.6,0.9c-3.5,0-5.8-2.2-5.8-5.9c0-3.6,2.4-5.9,5.9-5.9c1.3,0,2.7,0.3,3.6,0.9L310.3,147.3z"/>
		<path fill="#FFFFFF" d="M316.2,156.3c-2.4,0-4.2-1.7-4.2-4.4c0-2.7,1.9-4.4,4.3-4.4s4.2,1.7,4.2,4.4
			C320.5,154.6,318.6,156.3,316.2,156.3z M316.2,149.2c-1.4,0-2.1,1.1-2.1,2.7c0,1.6,0.8,2.7,2.2,2.7c1.4,0,2.1-1.1,2.1-2.7
			S317.6,149.2,316.2,149.2z"/>
		<path fill="#FFFFFF" d="M327.7,156.1V151c0-1.2-0.5-1.6-1.4-1.6c-0.7,0-1.4,0.4-1.8,0.8v5.9h-2.1v-8.3l2.1-0.3c0,0,0,1.3,0,1.3
			c0.7-0.8,1.7-1.3,2.7-1.3c1.7,0,2.7,1.1,2.7,2.9v5.7H327.7z"/>
		<path fill="#FFFFFF" d="M335.8,156.3c-2.7,0-4.3-1.7-4.3-4.4c0-2.7,1.8-4.4,4.4-4.4c1.1,0,2.1,0.3,2.9,0.7l-0.5,1.7
			c-0.7-0.4-1.5-0.7-2.3-0.7c-1.5,0-2.4,1-2.4,2.6c0,1.7,1,2.7,2.4,2.7c0.9,0,1.7-0.2,2.3-0.6l0.3,1.7
			C338,156.1,336.9,156.3,335.8,156.3z"/>
		<path fill="#FFFFFF" d="M344.8,155.1c-0.6,0.7-1.3,1.2-2.3,1.2c-1.5,0-2.6-1-2.6-2.3c0-1.5,1.1-2.8,4.9-3v-0.2
			c0-1.1-0.5-1.6-1.7-1.6c-0.8,0-1.9,0.4-2.8,0.9l-0.4-1.7c0.8-0.5,2.1-1,3.5-1c2.6,0,3.5,1.1,3.5,3.4v3c0,0.6,0.1,0.7,0.7,0.8
			l-0.2,1.6C345.9,156.4,345.2,155.9,344.8,155.1L344.8,155.1z M344.8,152.1c-2.1,0.3-2.8,0.7-2.8,1.5c0,0.6,0.5,1.1,1.2,1.1
			c0.7,0,1.2-0.3,1.6-0.7V152.1z"/>
		<path fill="#FFFFFF" d="M352.1,156.3c-1.9,0-2.8-0.8-2.8-2.8l0.1-3.9l-1.3-0.1l0.1-1.4l1.3-0.4l0-1.8h2.1l0,1.9h2.3l-0.1,1.7h-2.4
			l-0.1,3.8c0,0.8,0.4,1.1,1.1,1.1c0.4,0,0.9-0.1,1.3-0.3l0.3,1.7C353.4,156.2,352.8,156.3,352.1,156.3z"/>
		<path fill="#FFFFFF" d="M357.1,152.4c0.1,1.4,1,2.3,2.5,2.3c0.9,0,1.8-0.3,2.6-0.8l0.3,1.8c-0.8,0.4-1.9,0.7-3,0.7
			c-2.7,0-4.4-1.7-4.4-4.3c0-2.7,1.8-4.5,4.3-4.5c2.2,0,3.4,1.3,3.4,3.4c0,0.5-0.1,1-0.2,1.4C362.5,152.2,357.1,152.3,357.1,152.4
			L357.1,152.4z M360.7,151c0,0,0-0.1,0-0.1c0-1.1-0.5-1.8-1.6-1.8c-1.2,0-1.9,1-2,2L360.7,151z"/>
		<path fill="#FFFFFF" d="M369.9,156.1V151c0-1.2-0.5-1.6-1.4-1.6c-0.7,0-1.4,0.4-1.8,0.8v5.9h-2.1v-8.3l2.1-0.3c0,0,0,1.3,0,1.3
			c0.7-0.8,1.7-1.3,2.7-1.3c1.7,0,2.7,1.1,2.7,2.9v5.7H369.9z"/>
		<path fill="#FFFFFF" d="M378.6,155.1c-0.6,0.7-1.3,1.2-2.3,1.2c-1.5,0-2.6-1-2.6-2.3c0-1.5,1.1-2.8,4.9-3v-0.2
			c0-1.1-0.5-1.6-1.7-1.6c-0.8,0-1.9,0.4-2.8,0.9l-0.4-1.7c0.8-0.5,2.1-1,3.5-1c2.6,0,3.5,1.1,3.5,3.4v3c0,0.6,0.1,0.7,0.7,0.8
			l-0.2,1.6C379.7,156.4,378.9,155.9,378.6,155.1L378.6,155.1z M378.6,152.1c-2.1,0.3-2.8,0.7-2.8,1.5c0,0.6,0.5,1.1,1.2,1.1
			c0.7,0,1.2-0.3,1.6-0.7V152.1z"/>
		<path fill="#FFFFFF" d="M385.8,156.3c-1.9,0-2.8-0.8-2.8-2.8l0.1-3.9l-1.3-0.1l0.1-1.4l1.3-0.4l0-1.8h2.1l0,1.9h2.3l-0.1,1.7h-2.4
			l-0.1,3.8c0,0.8,0.4,1.1,1.1,1.1c0.4,0,0.9-0.1,1.3-0.3l0.3,1.7C387.1,156.2,386.5,156.3,385.8,156.3z"/>
		<path fill="#FFFFFF" d="M390.8,152.4c0.1,1.4,1,2.3,2.5,2.3c0.9,0,1.8-0.3,2.6-0.8l0.3,1.8c-0.8,0.4-1.9,0.7-3,0.7
			c-2.7,0-4.4-1.7-4.4-4.3c0-2.7,1.8-4.5,4.3-4.5c2.2,0,3.4,1.3,3.4,3.4c0,0.5-0.1,1-0.2,1.4C396.2,152.2,390.8,152.3,390.8,152.4
			L390.8,152.4z M394.4,151c0,0,0-0.1,0-0.1c0-1.1-0.5-1.8-1.6-1.8c-1.2,0-1.9,1-2,2L394.4,151z"/>
		<path fill="#FFFFFF" d="M325.8,168.6l-2.9,8.9h-2.3l-3-8.9l-0.1,9h-2.1l0.4-11.3h3l2.9,8.9l2.9-8.9h3l0.4,11.3h-2.1L325.8,168.6z"
			/>
		<path fill="#FFFFFF" d="M331.2,167.8c-0.8,0-1.3-0.5-1.3-1.3c0-0.8,0.5-1.3,1.3-1.3c0.8,0,1.3,0.5,1.3,1.3
			C332.5,167.3,332,167.8,331.2,167.8z M330.1,177.7v-8.2l2.1-0.3v8.6H330.1z"/>
		<path fill="#FFFFFF" d="M339.9,177.7v-5.1c0-1.2-0.5-1.6-1.4-1.6c-0.7,0-1.4,0.4-1.8,0.8v5.9h-2.1v-8.3l2.1-0.3c0,0,0,1.3,0,1.3
			c0.7-0.8,1.7-1.3,2.7-1.3c1.7,0,2.7,1.1,2.7,2.9v5.7H339.9z"/>
		<path fill="#FFFFFF" d="M345.3,167.8c-0.8,0-1.3-0.5-1.3-1.3c0-0.8,0.5-1.3,1.3-1.3c0.8,0,1.3,0.5,1.3,1.3
			C346.6,167.3,346.2,167.8,345.3,167.8z M344.3,177.7v-8.2l2.1-0.3v8.6H344.3z"/>
		<path fill="#FFFFFF" d="M359.1,177.7v-5c0-1.2-0.5-1.7-1.4-1.7c-0.7,0-1.3,0.4-1.7,0.7v0.5v5.5h-2.1v-5c0-1.2-0.5-1.7-1.4-1.7
			c-0.8,0-1.3,0.3-1.7,0.7v6h-2.1v-8.3l2.1-0.3c0,0,0,1.1,0,1.2c0.8-0.8,1.6-1.2,2.6-1.2c1,0,1.9,0.5,2.3,1.4c0.8-0.9,1.8-1.4,3-1.4
			c1.6,0,2.6,1.1,2.6,2.9v5.7H359.1z"/>
		<path fill="#FFFFFF" d="M364.5,167.8c-0.8,0-1.3-0.5-1.3-1.3c0-0.8,0.5-1.3,1.3-1.3c0.8,0,1.3,0.5,1.3,1.3
			C365.8,167.3,365.3,167.8,364.5,167.8z M363.4,177.7v-8.2l2.1-0.3v8.6H363.4z"/>
		<path fill="#FFFFFF" d="M367,177.7v-1.5l4.3-5h-4.2v-1.8h6.9v1.4l-4.4,5.1h4.4v1.8H367z"/>
		<path fill="#FFFFFF" d="M377.1,174c0.1,1.4,1,2.3,2.5,2.3c0.9,0,1.8-0.3,2.6-0.8l0.3,1.8c-0.8,0.4-1.9,0.7-3,0.7
			c-2.7,0-4.4-1.7-4.4-4.3c0-2.7,1.8-4.5,4.3-4.5c2.2,0,3.4,1.3,3.4,3.4c0,0.5-0.1,1-0.2,1.4C382.5,173.8,377.1,173.9,377.1,174
			L377.1,174z M380.7,172.6c0,0,0-0.1,0-0.1c0-1.1-0.5-1.8-1.6-1.8c-1.2,0-1.9,1-2,2L380.7,172.6z"/>
		<path fill="#FFFFFF" d="M316.2,199.3H314l-0.9-2.7h-4.5l-0.9,2.7h-2.2l4.1-11.3h2.7L316.2,199.3z M310.8,189.9l-1.7,4.9h3.4
			L310.8,189.9z"/>
		<path fill="#FFFFFF" d="M319.4,191v5.1c0,1.2,0.5,1.6,1.4,1.6c0.8,0,1.4-0.3,1.8-0.7v-6h2.1v8.2l-2.1,0.3c0,0,0-1.2,0-1.2
			c-0.7,0.7-1.7,1.3-2.7,1.3c-1.6,0-2.6-1.1-2.6-2.9V191H319.4z"/>
		<path fill="#FFFFFF" d="M329.9,199.5c-1.9,0-2.8-0.8-2.8-2.8l0.1-3.9l-1.3-0.1l0.1-1.4l1.3-0.4l0-1.8h2.1l0,1.9h2.3l-0.1,1.7h-2.4
			l-0.1,3.8c0,0.8,0.4,1.1,1.1,1.1c0.4,0,0.9-0.1,1.3-0.3l0.3,1.7C331.2,199.4,330.6,199.5,329.9,199.5z"/>
		<path fill="#FFFFFF" d="M337,199.5c-2.4,0-4.2-1.7-4.2-4.4c0-2.7,1.9-4.4,4.3-4.4s4.2,1.7,4.2,4.4
			C341.4,197.8,339.5,199.5,337,199.5z M337.1,192.4c-1.4,0-2.1,1.1-2.1,2.7c0,1.6,0.8,2.7,2.2,2.7c1.4,0,2.1-1.1,2.1-2.7
			S338.5,192.4,337.1,192.4z"/>
		<path fill="#FFFFFF" d="M342.5,195.8V194h5.1v1.8H342.5z"/>
		<path fill="#FFFFFF" d="M353.7,190.7c2.2,0,3.6,1.8,3.6,4.3c0,2.6-1.8,4.5-4.2,4.5c-0.5,0-1.2-0.1-1.8-0.2v3.9h-2.1V191l2.1-0.3
			c0,0,0,1,0,1C351.9,191.2,352.7,190.7,353.7,190.7z M351.4,197.3c0.4,0.3,0.9,0.5,1.6,0.5c1.4,0,2.2-1.2,2.2-2.7
			c0-1.6-0.8-2.6-2.1-2.6c-0.7,0-1.2,0.3-1.7,0.7C351.4,193.1,351.4,197.3,351.4,197.3z"/>
		<path fill="#FFFFFF" d="M361.3,199.3h-2.1V191l2.1-0.3v1.4c0.5-0.9,1.2-1.4,2.2-1.4c0.5,0,1,0.1,1.5,0.4l-0.5,1.9
			c-0.4-0.2-0.8-0.3-1.2-0.3c-0.7,0-1.4,0.5-2,1.5V199.3z"/>
		<path fill="#FFFFFF" d="M367.7,195.6c0.1,1.4,1,2.3,2.5,2.3c0.9,0,1.8-0.3,2.6-0.8l0.3,1.8c-0.8,0.4-1.9,0.7-3,0.7
			c-2.7,0-4.4-1.7-4.4-4.3c0-2.7,1.8-4.5,4.3-4.5c2.2,0,3.4,1.3,3.4,3.4c0,0.4-0.1,1-0.2,1.4C373.1,195.4,367.7,195.5,367.7,195.6
			L367.7,195.6z M371.3,194.2c0,0,0-0.1,0-0.1c0-1.1-0.5-1.8-1.6-1.8c-1.2,0-1.9,1-2,2L371.3,194.2z"/>
		<path fill="#FFFFFF" d="M379.8,188.9c-0.4-0.2-0.8-0.3-1.2-0.3c-0.8,0-1.1,0.5-1.1,1.5v0.9h2.4l-0.1,1.7h-2.3v6.5h-2.1v-6.5
			l-1.4-0.1l0.1-1.4l1.4-0.4l0-0.9c0.1-2.4,1.1-3.3,3-3.3c0.7,0,1.4,0.2,1.8,0.4C380.2,187.1,379.8,188.9,379.8,188.9z M382.1,189.5
			c-0.8,0-1.3-0.5-1.3-1.3c0-0.8,0.5-1.3,1.3-1.3s1.3,0.5,1.3,1.3C383.4,189,382.9,189.5,382.1,189.5z M381,199.3V191l2.1-0.3v8.6
			H381z"/>
		<path fill="#FFFFFF" d="M390.2,199.3l-1.8-3l-1.8,3h-2.3l2.9-4.2l-2.8-4.1h2.3l1.7,2.7l1.7-2.7h2.3l-2.7,4l2.8,4.3H390.2z"/>
		<path fill="#FFFFFF" d="M310.3,217.3l-1.3,0v3.5h-2.2v-11.3c0,0,3.6,0,3.6,0c3.1,0,4.6,1.6,4.6,3.8
			C315.1,216,313.3,217.3,310.3,217.3z M310.3,211.4c-0.1,0-1.3,0-1.3,0v4.1l1.4,0c1.7,0,2.5-0.8,2.5-2.1S312.1,211.4,310.3,211.4z"
			/>
		<path fill="#FFFFFF" d="M319,220.9h-2.1v-8.2l2.1-0.3v1.4c0.5-0.9,1.2-1.4,2.2-1.4c0.5,0,1,0.1,1.5,0.4l-0.5,1.9
			c-0.4-0.2-0.8-0.3-1.2-0.3c-0.7,0-1.4,0.5-2,1.5V220.9z"/>
		<path fill="#FFFFFF" d="M325.4,217.2c0.1,1.4,1,2.3,2.5,2.3c0.9,0,1.8-0.3,2.6-0.8l0.3,1.8c-0.8,0.4-1.9,0.7-3,0.7
			c-2.7,0-4.4-1.7-4.4-4.3c0-2.7,1.8-4.5,4.3-4.5c2.2,0,3.4,1.3,3.4,3.4c0,0.4-0.1,1-0.2,1.4C330.8,217,325.4,217.1,325.4,217.2
			L325.4,217.2z M329,215.8c0,0,0-0.1,0-0.1c0-1.1-0.5-1.8-1.6-1.8c-1.2,0-1.9,1-2,2L329,215.8z"/>
		<path fill="#FFFFFF" d="M336.6,221.1c-2.7,0-4.3-1.7-4.3-4.4c0-2.7,1.8-4.4,4.4-4.4c1.1,0,2.1,0.3,2.9,0.7l-0.5,1.7
			c-0.7-0.4-1.5-0.7-2.3-0.7c-1.5,0-2.4,1-2.4,2.6c0,1.7,1,2.7,2.4,2.7c0.9,0,1.7-0.2,2.3-0.6l0.3,1.7
			C338.7,220.9,337.7,221.1,336.6,221.1z"/>
		<path fill="#FFFFFF" d="M344.9,221.1c-2.4,0-4.2-1.7-4.2-4.4c0-2.7,1.9-4.4,4.3-4.4s4.2,1.7,4.2,4.4
			C349.2,219.4,347.3,221.1,344.9,221.1z M344.9,214c-1.4,0-2.1,1.1-2.1,2.7c0,1.6,0.8,2.7,2.2,2.7c1.4,0,2.1-1.1,2.1-2.7
			S346.3,214,344.9,214z"/>
		<path fill="#FFFFFF" d="M361.4,220.9v-5c0-1.2-0.5-1.7-1.4-1.7c-0.7,0-1.3,0.4-1.7,0.7v0.5v5.5h-2.1v-5c0-1.2-0.5-1.7-1.4-1.7
			c-0.8,0-1.3,0.3-1.7,0.7v6H351v-8.3l2.1-0.3c0,0,0,1.1,0,1.2c0.8-0.8,1.6-1.2,2.6-1.2c1,0,1.9,0.5,2.3,1.4c0.8-0.9,1.8-1.4,3-1.4
			c1.6,0,2.6,1.1,2.6,2.9v5.7H361.4z"/>
		<path fill="#FFFFFF" d="M370.2,212.3c2.2,0,3.6,1.8,3.6,4.3c0,2.6-1.8,4.5-4.2,4.5c-0.5,0-1.2-0.1-1.8-0.2v3.9h-2.1v-12.2l2.1-0.3
			c0,0,0,1,0,1C368.4,212.8,369.1,212.3,370.2,212.3z M367.8,218.9c0.4,0.3,0.9,0.5,1.6,0.5c1.4,0,2.2-1.2,2.2-2.7
			c0-1.6-0.8-2.6-2.1-2.6c-0.7,0-1.2,0.3-1.7,0.7C367.8,214.7,367.8,218.9,367.8,218.9z"/>
		<path fill="#FFFFFF" d="M376.6,211c-0.8,0-1.3-0.5-1.3-1.3c0-0.8,0.5-1.3,1.3-1.3c0.8,0,1.3,0.5,1.3,1.3
			C378,210.5,377.5,211,376.6,211z M375.6,220.9v-8.2l2.1-0.3v8.6H375.6z"/>
		<path fill="#FFFFFF" d="M380,220.9v-12l2.1-0.3v12.3H380z"/>
		<path fill="#FFFFFF" d="M386,217.2c0.1,1.4,1,2.3,2.5,2.3c0.9,0,1.8-0.3,2.6-0.8l0.3,1.8c-0.8,0.4-1.9,0.7-3,0.7
			c-2.7,0-4.4-1.7-4.4-4.3c0-2.7,1.8-4.5,4.3-4.5c2.2,0,3.4,1.3,3.4,3.4c0,0.4-0.1,1-0.2,1.4C391.4,217,386,217.1,386,217.2
			L386,217.2z M389.6,215.8c0,0,0-0.1,0-0.1c0-1.1-0.5-1.8-1.6-1.8c-1.2,0-1.9,1-2,2L389.6,215.8z"/>
		<path fill="#FFFFFF" d="M320.6,242.7c-3.3,0-5.8-2.2-5.8-5.9c0-3.5,2.5-5.9,5.8-5.9c3.3,0,5.8,2.2,5.8,5.9
			C326.4,240.3,323.9,242.7,320.6,242.7z M320.6,232.8c-2.1,0-3.5,1.6-3.5,4c0,2.5,1.4,4.1,3.6,4.1c2.1,0,3.5-1.6,3.5-4
			C324.2,234.4,322.8,232.8,320.6,232.8z"/>
		<path fill="#FFFFFF" d="M332.7,233.9c2.2,0,3.6,1.8,3.6,4.3c0,2.6-1.8,4.5-4.2,4.5c-0.5,0-1.2-0.1-1.8-0.2v3.9h-2.1v-12.2l2.1-0.3
			c0,0,0,1,0,1C331,234.4,331.7,233.9,332.7,233.9z M330.4,240.5c0.4,0.3,0.9,0.5,1.6,0.5c1.4,0,2.2-1.2,2.2-2.7
			c0-1.6-0.8-2.6-2.1-2.6c-0.7,0-1.2,0.3-1.7,0.7C330.4,236.3,330.4,240.5,330.4,240.5z"/>
		<path fill="#FFFFFF" d="M341.1,242.7c-1.9,0-2.8-0.8-2.8-2.8l0.1-3.9l-1.3-0.1l0.1-1.4l1.3-0.4l0-1.8h2.1l0,1.9h2.3l-0.1,1.7h-2.4
			l-0.1,3.8c0,0.8,0.4,1.1,1.1,1.1c0.4,0,0.9-0.1,1.3-0.3l0.3,1.7C342.4,242.6,341.8,242.7,341.1,242.7z"/>
		<path fill="#FFFFFF" d="M345.6,232.6c-0.8,0-1.3-0.5-1.3-1.3c0-0.8,0.5-1.3,1.3-1.3c0.8,0,1.3,0.5,1.3,1.3
			C347,232.1,346.5,232.6,345.6,232.6z M344.6,242.5v-8.2l2.1-0.3v8.6H344.6z"/>
		<path fill="#FFFFFF" d="M359.4,242.5v-5c0-1.2-0.5-1.7-1.4-1.7c-0.7,0-1.3,0.4-1.7,0.7v0.5v5.5h-2.1v-5c0-1.2-0.5-1.7-1.4-1.7
			c-0.8,0-1.3,0.3-1.7,0.7v6H349v-8.3l2.1-0.3c0,0,0,1.1,0,1.2c0.8-0.8,1.6-1.2,2.6-1.2c1,0,1.9,0.5,2.3,1.4c0.8-0.9,1.8-1.4,3-1.4
			c1.6,0,2.6,1.1,2.6,2.9v5.7H359.4z"/>
		<path fill="#FFFFFF" d="M364.8,232.6c-0.8,0-1.3-0.5-1.3-1.3c0-0.8,0.5-1.3,1.3-1.3c0.8,0,1.3,0.5,1.3,1.3
			C366.1,232.1,365.6,232.6,364.8,232.6z M363.7,242.5v-8.2l2.1-0.3v8.6H363.7z"/>
		<path fill="#FFFFFF" d="M367.3,242.5V241l4.3-5h-4.2v-1.8h6.9v1.4l-4.4,5.1h4.4v1.8H367.3z"/>
		<path fill="#FFFFFF" d="M377.4,238.8c0.1,1.4,1,2.3,2.5,2.3c0.9,0,1.8-0.3,2.6-0.8l0.3,1.8c-0.8,0.4-1.9,0.7-3,0.7
			c-2.7,0-4.4-1.7-4.4-4.3c0-2.7,1.8-4.5,4.3-4.5c2.2,0,3.4,1.3,3.4,3.4c0,0.5-0.1,1-0.2,1.4C382.8,238.6,377.4,238.7,377.4,238.8
			L377.4,238.8z M381,237.4c0,0,0-0.1,0-0.1c0-1.1-0.5-1.8-1.6-1.8c-1.2,0-1.9,1-2,2L381,237.4z"/>
	</g>
</g>
<g id="sis_x5F_cs.css_sis_x5F_slate.css_sis_x5F_cs.js_sis_x5F_slate.js_images__x28_optimiz_1_">
	<g id="sis_x5F_cs.css_sis_x5F_slate.css_sis_x5F_cs.js_sis_x5F_slate.js_images__x28_optimiz">
		<path fill="#FFFFFF" d="M440.6,157c-0.9,0-1.9-0.3-2.5-0.7l0.2-0.7c0.7,0.5,1.5,0.7,2.3,0.7c1,0,2.1-0.6,2.1-1.6
			c0-1.2-1.1-1.5-2.2-1.9c-1.1-0.4-2.3-0.9-2.3-2.3c0-1.5,1.2-2.2,2.6-2.2c0.9,0,1.7,0.3,2.3,0.6l-0.3,0.7c-0.7-0.4-1.4-0.6-2.2-0.6
			c-1.1,0-1.9,0.6-1.9,1.5c0,1.1,1.1,1.4,2.2,1.8c1.1,0.4,2.4,0.9,2.4,2.4C443.4,156.1,442.2,157,440.6,157z"/>
		<path fill="#FFFFFF" d="M445.9,146.6c-0.3,0-0.5-0.3-0.5-0.6c0-0.3,0.2-0.5,0.5-0.5s0.5,0.3,0.5,0.5
			C446.5,146.3,446.3,146.6,445.9,146.6z M445.6,156.8v-8.2l0.7-0.2v8.4H445.6z"/>
		<path fill="#FFFFFF" d="M450.8,157c-0.9,0-1.9-0.3-2.5-0.7l0.2-0.7c0.7,0.5,1.5,0.7,2.3,0.7c1,0,2.1-0.6,2.1-1.6
			c0-1.2-1.1-1.5-2.2-1.9c-1.1-0.4-2.3-0.9-2.3-2.3c0-1.5,1.2-2.2,2.6-2.2c0.9,0,1.7,0.3,2.3,0.6l-0.3,0.7c-0.7-0.4-1.4-0.6-2.2-0.6
			c-1.1,0-1.9,0.6-1.9,1.5c0,1.1,1.1,1.4,2.2,1.8c1.1,0.4,2.4,0.9,2.4,2.4C453.6,156.1,452.3,157,450.8,157z"/>
		<path fill="#FFFFFF" d="M454.2,157.5v-0.7h8v0.7H454.2z"/>
		<path fill="#FFFFFF" d="M466.9,157c-2.3,0-4-1.8-4-4.3c0-2.5,1.6-4.3,3.9-4.3c1,0,1.8,0.3,2.5,0.7l-0.2,0.7
			c-0.6-0.4-1.4-0.7-2.3-0.7c-1.9,0-3.2,1.5-3.2,3.6c0,2.1,1.3,3.6,3.2,3.6c0.8,0,1.6-0.3,2.2-0.7l0.2,0.7
			C468.6,156.7,467.7,157,466.9,157z"/>
		<path fill="#FFFFFF" d="M473.2,157c-0.9,0-1.9-0.3-2.5-0.7l0.2-0.7c0.7,0.5,1.5,0.7,2.3,0.7c1,0,2.1-0.6,2.1-1.6
			c0-1.2-1.1-1.5-2.2-1.9c-1.1-0.4-2.3-0.9-2.3-2.3c0-1.5,1.2-2.2,2.6-2.2c0.9,0,1.7,0.3,2.3,0.6l-0.3,0.7c-0.7-0.4-1.4-0.6-2.2-0.6
			c-1.1,0-1.9,0.6-1.9,1.5c0,1.1,1.1,1.4,2.2,1.8c1.1,0.4,2.4,0.9,2.4,2.4C476,156.1,474.8,157,473.2,157z"/>
		<path fill="#FFFFFF" d="M478.2,157c-0.4,0-0.6-0.3-0.6-0.7c0-0.3,0.3-0.6,0.6-0.6s0.6,0.3,0.6,0.6
			C478.8,156.7,478.5,157,478.2,157z"/>
		<path fill="#FFFFFF" d="M484.3,157c-2.3,0-4-1.8-4-4.3c0-2.5,1.6-4.3,3.9-4.3c1,0,1.8,0.3,2.5,0.7l-0.2,0.7
			c-0.6-0.4-1.4-0.7-2.3-0.7c-1.9,0-3.2,1.5-3.2,3.6c0,2.1,1.3,3.6,3.2,3.6c0.8,0,1.6-0.3,2.2-0.7l0.2,0.7
			C486.1,156.7,485.2,157,484.3,157z"/>
		<path fill="#FFFFFF" d="M490.7,157c-0.9,0-1.9-0.3-2.5-0.7l0.2-0.7c0.7,0.5,1.5,0.7,2.3,0.7c1,0,2.1-0.6,2.1-1.6
			c0-1.2-1.1-1.5-2.2-1.9c-1.1-0.4-2.3-0.9-2.3-2.3c0-1.5,1.2-2.2,2.6-2.2c0.9,0,1.7,0.3,2.3,0.6l-0.3,0.7c-0.7-0.4-1.4-0.6-2.2-0.6
			c-1.1,0-1.9,0.6-1.9,1.5c0,1.1,1.1,1.4,2.2,1.8c1.1,0.4,2.4,0.9,2.4,2.4C493.5,156.1,492.2,157,490.7,157z"/>
		<path fill="#FFFFFF" d="M497.5,157c-0.9,0-1.9-0.3-2.5-0.7l0.2-0.7c0.7,0.5,1.5,0.7,2.3,0.7c1,0,2.1-0.6,2.1-1.6
			c0-1.2-1.1-1.5-2.2-1.9c-1.1-0.4-2.3-0.9-2.3-2.3c0-1.5,1.2-2.2,2.6-2.2c0.9,0,1.7,0.3,2.3,0.6l-0.3,0.7c-0.7-0.4-1.4-0.6-2.2-0.6
			c-1.1,0-1.9,0.6-1.9,1.5c0,1.1,1.1,1.4,2.2,1.8c1.1,0.4,2.4,0.9,2.4,2.4C500.3,156.1,499,157,497.5,157z"/>
		<path fill="#FFFFFF" d="M440.6,178.6c-0.9,0-1.9-0.3-2.5-0.7l0.2-0.7c0.7,0.5,1.5,0.7,2.3,0.7c1,0,2.1-0.6,2.1-1.6
			c0-1.2-1.1-1.5-2.2-1.9c-1.1-0.4-2.3-0.9-2.3-2.3c0-1.5,1.2-2.2,2.6-2.2c0.9,0,1.7,0.3,2.3,0.6l-0.3,0.7c-0.7-0.4-1.4-0.6-2.2-0.6
			c-1.1,0-1.9,0.6-1.9,1.5c0,1.1,1.1,1.4,2.2,1.8c1.1,0.4,2.4,0.9,2.4,2.4C443.4,177.7,442.2,178.6,440.6,178.6z"/>
		<path fill="#FFFFFF" d="M445.9,168.2c-0.3,0-0.5-0.3-0.5-0.6c0-0.3,0.2-0.5,0.5-0.5s0.5,0.3,0.5,0.5
			C446.5,167.9,446.3,168.2,445.9,168.2z M445.6,178.4v-8.2l0.7-0.2v8.4H445.6z"/>
		<path fill="#FFFFFF" d="M450.8,178.6c-0.9,0-1.9-0.3-2.5-0.7l0.2-0.7c0.7,0.5,1.5,0.7,2.3,0.7c1,0,2.1-0.6,2.1-1.6
			c0-1.2-1.1-1.5-2.2-1.9c-1.1-0.4-2.3-0.9-2.3-2.3c0-1.5,1.2-2.2,2.6-2.2c0.9,0,1.7,0.3,2.3,0.6l-0.3,0.7c-0.7-0.4-1.4-0.6-2.2-0.6
			c-1.1,0-1.9,0.6-1.9,1.5c0,1.1,1.1,1.4,2.2,1.8c1.1,0.4,2.4,0.9,2.4,2.4C453.6,177.7,452.3,178.6,450.8,178.6z"/>
		<path fill="#FFFFFF" d="M454.2,179.1v-0.7h8v0.7H454.2z"/>
		<path fill="#FFFFFF" d="M465.2,178.6c-0.9,0-1.9-0.3-2.5-0.7l0.2-0.7c0.7,0.5,1.5,0.7,2.3,0.7c1,0,2.1-0.6,2.1-1.6
			c0-1.2-1.1-1.5-2.2-1.9c-1.1-0.4-2.3-0.9-2.3-2.3c0-1.5,1.2-2.2,2.6-2.2c0.9,0,1.7,0.3,2.3,0.6l-0.3,0.7c-0.7-0.4-1.4-0.6-2.2-0.6
			c-1.1,0-1.9,0.6-1.9,1.5c0,1.1,1.1,1.4,2.2,1.8c1.1,0.4,2.4,0.9,2.4,2.4C468,177.7,466.8,178.6,465.2,178.6z"/>
		<path fill="#FFFFFF" d="M470.1,178.4v-12.1l0.7-0.2v12.4H470.1z"/>
		<path fill="#FFFFFF" d="M477.9,177.3c-0.5,0.6-1.5,1.3-2.6,1.3c-1.5,0-2.6-0.9-2.6-2.2c0-1.5,1.3-2.7,5.1-2.9c0,0,0-0.7,0-0.8
			c0-1.3-0.6-2.1-2-2.1c-1,0-2.1,0.6-2.8,1.1l-0.2-0.7c0.8-0.5,2-1,3-1c1.6,0,2.7,0.8,2.7,2.7c0,0.1,0,4.5,0,4.5
			c0,0.5,0.1,0.9,0.9,0.9l-0.1,0.6C478.6,178.6,478,178.2,477.9,177.3L477.9,177.3z M477.9,174c-3.2,0.3-4.3,1.1-4.3,2.3
			c0,1,0.9,1.6,1.9,1.6c1,0,1.9-0.6,2.4-1.3V174z"/>
		<path fill="#FFFFFF" d="M483.2,178.7c-1.5,0-2.1-1-2-2.6l0.1-5.1l-1.1-0.1l0.1-0.5l1.1-0.1l0.1-2h0.7l-0.1,2h2.9l-0.1,0.6H482
			l-0.1,5.2c0,1.4,0.4,1.9,1.3,1.9c0.6,0,1.2-0.2,1.7-0.5l0.1,0.6C484.5,178.5,483.8,178.7,483.2,178.7z"/>
		<path fill="#FFFFFF" d="M487.1,174.3c0,2.1,1.2,3.6,3,3.6c0.9,0,1.7-0.3,2.3-0.7l0.2,0.7c-0.6,0.4-1.5,0.7-2.5,0.7
			c-2.2,0-3.7-1.8-3.7-4.3c0-2.5,1.5-4.3,3.7-4.3c1.6,0,2.9,1.1,2.9,2.8c0,0.4-0.1,0.9-0.2,1.3l-5.6,0V174.3z M492,173.5
			c0-0.2,0.1-0.4,0.1-0.6c0-1.3-0.8-2.2-2.1-2.2c-1.5,0-2.6,1.2-2.9,2.8H492z"/>
		<path fill="#FFFFFF" d="M495.2,178.6c-0.4,0-0.6-0.3-0.6-0.7c0-0.3,0.3-0.6,0.6-0.6s0.6,0.3,0.6,0.6
			C495.8,178.3,495.5,178.6,495.2,178.6z"/>
		<path fill="#FFFFFF" d="M501.3,178.6c-2.3,0-4-1.8-4-4.3c0-2.5,1.6-4.3,3.9-4.3c1,0,1.8,0.3,2.5,0.7l-0.2,0.7
			c-0.6-0.4-1.4-0.7-2.3-0.7c-1.9,0-3.2,1.5-3.2,3.6c0,2.1,1.3,3.6,3.2,3.6c0.8,0,1.6-0.3,2.2-0.7l0.2,0.7
			C503,178.3,502.2,178.6,501.3,178.6z"/>
		<path fill="#FFFFFF" d="M507.7,178.6c-0.9,0-1.9-0.3-2.5-0.7l0.2-0.7c0.7,0.5,1.5,0.7,2.3,0.7c1,0,2.1-0.6,2.1-1.6
			c0-1.2-1.1-1.5-2.2-1.9c-1.1-0.4-2.3-0.9-2.3-2.3c0-1.5,1.2-2.2,2.6-2.2c0.9,0,1.7,0.3,2.3,0.6l-0.3,0.7c-0.7-0.4-1.4-0.6-2.2-0.6
			c-1.1,0-1.9,0.6-1.9,1.5c0,1.1,1.1,1.4,2.2,1.8c1.1,0.4,2.4,0.9,2.4,2.4C510.5,177.7,509.2,178.6,507.7,178.6z"/>
		<path fill="#FFFFFF" d="M514.5,178.6c-0.9,0-1.9-0.3-2.5-0.7l0.2-0.7c0.7,0.5,1.5,0.7,2.3,0.7c1,0,2.1-0.6,2.1-1.6
			c0-1.2-1.1-1.5-2.2-1.9c-1.1-0.4-2.3-0.9-2.3-2.3c0-1.5,1.2-2.2,2.6-2.2c0.9,0,1.7,0.3,2.3,0.6l-0.3,0.7c-0.7-0.4-1.4-0.6-2.2-0.6
			c-1.1,0-1.9,0.6-1.9,1.5c0,1.1,1.1,1.4,2.2,1.8c1.1,0.4,2.4,0.9,2.4,2.4C517.3,177.7,516,178.6,514.5,178.6z"/>
		<path fill="#FFFFFF" d="M440.6,200.2c-0.9,0-1.9-0.3-2.5-0.7l0.2-0.7c0.7,0.5,1.5,0.7,2.3,0.7c1,0,2.1-0.6,2.1-1.6
			c0-1.2-1.1-1.5-2.2-1.9c-1.1-0.4-2.3-0.9-2.3-2.3c0-1.5,1.2-2.2,2.6-2.2c0.9,0,1.7,0.3,2.3,0.6l-0.3,0.7c-0.7-0.4-1.4-0.6-2.2-0.6
			c-1.1,0-1.9,0.6-1.9,1.5c0,1.1,1.1,1.4,2.2,1.8c1.1,0.4,2.4,0.9,2.4,2.4C443.4,199.3,442.2,200.2,440.6,200.2z"/>
		<path fill="#FFFFFF" d="M445.9,189.8c-0.3,0-0.5-0.3-0.5-0.6c0-0.3,0.2-0.5,0.5-0.5s0.5,0.3,0.5,0.5
			C446.5,189.5,446.3,189.8,445.9,189.8z M445.6,200v-8.2l0.7-0.2v8.4H445.6z"/>
		<path fill="#FFFFFF" d="M450.8,200.2c-0.9,0-1.9-0.3-2.5-0.7l0.2-0.7c0.7,0.5,1.5,0.7,2.3,0.7c1,0,2.1-0.6,2.1-1.6
			c0-1.2-1.1-1.5-2.2-1.9c-1.1-0.4-2.3-0.9-2.3-2.3c0-1.5,1.2-2.2,2.6-2.2c0.9,0,1.7,0.3,2.3,0.6l-0.3,0.7c-0.7-0.4-1.4-0.6-2.2-0.6
			c-1.1,0-1.9,0.6-1.9,1.5c0,1.1,1.1,1.4,2.2,1.8c1.1,0.4,2.4,0.9,2.4,2.4C453.6,199.3,452.3,200.2,450.8,200.2z"/>
		<path fill="#FFFFFF" d="M454.2,200.7V200h8v0.7H454.2z"/>
		<path fill="#FFFFFF" d="M466.9,200.2c-2.3,0-4-1.8-4-4.3s1.6-4.3,3.9-4.3c1,0,1.8,0.3,2.5,0.7l-0.2,0.7c-0.6-0.4-1.4-0.7-2.3-0.7
			c-1.9,0-3.2,1.5-3.2,3.6c0,2.1,1.3,3.6,3.2,3.6c0.8,0,1.6-0.3,2.2-0.7l0.2,0.7C468.6,199.9,467.7,200.2,466.9,200.2z"/>
		<path fill="#FFFFFF" d="M473.2,200.2c-0.9,0-1.9-0.3-2.5-0.7l0.2-0.7c0.7,0.5,1.5,0.7,2.3,0.7c1,0,2.1-0.6,2.1-1.6
			c0-1.2-1.1-1.5-2.2-1.9c-1.1-0.4-2.3-0.9-2.3-2.3c0-1.5,1.2-2.2,2.6-2.2c0.9,0,1.7,0.3,2.3,0.6l-0.3,0.7c-0.7-0.4-1.4-0.6-2.2-0.6
			c-1.1,0-1.9,0.6-1.9,1.5c0,1.1,1.1,1.4,2.2,1.8c1.1,0.4,2.4,0.9,2.4,2.4C476,199.3,474.8,200.2,473.2,200.2z"/>
		<path fill="#FFFFFF" d="M478.2,200.2c-0.4,0-0.6-0.3-0.6-0.7c0-0.3,0.3-0.6,0.6-0.6s0.6,0.3,0.6,0.6
			C478.8,199.9,478.5,200.2,478.2,200.2z"/>
		<path fill="#FFFFFF" d="M479.2,204c1.4-0.8,1.8-1.5,1.8-3.3c0,0.1,0-8.9,0-8.9l0.7-0.2c0,0,0,9.2,0,9.3c0,1.9-0.6,3-2,3.7
			L479.2,204z M481.3,189.8c-0.3,0-0.5-0.3-0.5-0.6c0-0.3,0.2-0.5,0.5-0.5s0.5,0.3,0.5,0.5C481.8,189.5,481.6,189.8,481.3,189.8z"/>
		<path fill="#FFFFFF" d="M486.2,200.2c-0.9,0-1.9-0.3-2.5-0.7l0.2-0.7c0.7,0.5,1.5,0.7,2.3,0.7c1,0,2.1-0.6,2.1-1.6
			c0-1.2-1.1-1.5-2.2-1.9c-1.1-0.4-2.3-0.9-2.3-2.3c0-1.5,1.2-2.2,2.6-2.2c0.9,0,1.7,0.3,2.3,0.6l-0.3,0.7c-0.7-0.4-1.4-0.6-2.2-0.6
			c-1.1,0-1.9,0.6-1.9,1.5c0,1.1,1.1,1.4,2.2,1.8c1.1,0.4,2.4,0.9,2.4,2.4C489,199.3,487.7,200.2,486.2,200.2z"/>
		<path fill="#FFFFFF" d="M440.6,221.8c-0.9,0-1.9-0.3-2.5-0.7l0.2-0.7c0.7,0.5,1.5,0.7,2.3,0.7c1,0,2.1-0.6,2.1-1.6
			c0-1.2-1.1-1.5-2.2-1.9c-1.1-0.4-2.3-0.9-2.3-2.3c0-1.5,1.2-2.2,2.6-2.2c0.9,0,1.7,0.3,2.3,0.6l-0.3,0.7c-0.7-0.4-1.4-0.6-2.2-0.6
			c-1.1,0-1.9,0.6-1.9,1.5c0,1.1,1.1,1.4,2.2,1.8c1.1,0.4,2.4,0.9,2.4,2.4C443.4,220.9,442.2,221.8,440.6,221.8z"/>
		<path fill="#FFFFFF" d="M445.9,211.4c-0.3,0-0.5-0.3-0.5-0.6c0-0.3,0.2-0.5,0.5-0.5s0.5,0.3,0.5,0.5
			C446.5,211.1,446.3,211.4,445.9,211.4z M445.6,221.6v-8.2l0.7-0.2v8.4H445.6z"/>
		<path fill="#FFFFFF" d="M450.8,221.8c-0.9,0-1.9-0.3-2.5-0.7l0.2-0.7c0.7,0.5,1.5,0.7,2.3,0.7c1,0,2.1-0.6,2.1-1.6
			c0-1.2-1.1-1.5-2.2-1.9c-1.1-0.4-2.3-0.9-2.3-2.3c0-1.5,1.2-2.2,2.6-2.2c0.9,0,1.7,0.3,2.3,0.6l-0.3,0.7c-0.7-0.4-1.4-0.6-2.2-0.6
			c-1.1,0-1.9,0.6-1.9,1.5c0,1.1,1.1,1.4,2.2,1.8c1.1,0.4,2.4,0.9,2.4,2.4C453.6,220.9,452.3,221.8,450.8,221.8z"/>
		<path fill="#FFFFFF" d="M454.2,222.3v-0.7h8v0.7H454.2z"/>
		<path fill="#FFFFFF" d="M465.2,221.8c-0.9,0-1.9-0.3-2.5-0.7l0.2-0.7c0.7,0.5,1.5,0.7,2.3,0.7c1,0,2.1-0.6,2.1-1.6
			c0-1.2-1.1-1.5-2.2-1.9c-1.1-0.4-2.3-0.9-2.3-2.3c0-1.5,1.2-2.2,2.6-2.2c0.9,0,1.7,0.3,2.3,0.6l-0.3,0.7c-0.7-0.4-1.4-0.6-2.2-0.6
			c-1.1,0-1.9,0.6-1.9,1.5c0,1.1,1.1,1.4,2.2,1.8c1.1,0.4,2.4,0.9,2.4,2.4C468,220.9,466.8,221.8,465.2,221.8z"/>
		<path fill="#FFFFFF" d="M470.1,221.6v-12.1l0.7-0.2v12.4H470.1z"/>
		<path fill="#FFFFFF" d="M477.9,220.5c-0.5,0.6-1.5,1.3-2.6,1.3c-1.5,0-2.6-0.9-2.6-2.2c0-1.5,1.3-2.7,5.1-2.9c0,0,0-0.7,0-0.8
			c0-1.3-0.6-2.1-2-2.1c-1,0-2.1,0.6-2.8,1.1l-0.2-0.7c0.8-0.5,2-1,3-1c1.6,0,2.7,0.8,2.7,2.7c0,0.1,0,4.5,0,4.5
			c0,0.5,0.1,0.9,0.9,0.9l-0.1,0.6C478.6,221.8,478,221.4,477.9,220.5L477.9,220.5z M477.9,217.2c-3.2,0.3-4.3,1.1-4.3,2.3
			c0,1,0.9,1.6,1.9,1.6c1,0,1.9-0.6,2.4-1.3V217.2z"/>
		<path fill="#FFFFFF" d="M483.2,221.9c-1.5,0-2.1-1-2-2.6l0.1-5.1l-1.1-0.1l0.1-0.5l1.1-0.1l0.1-2h0.7l-0.1,2h2.9l-0.1,0.6H482
			l-0.1,5.2c0,1.4,0.4,1.9,1.3,1.9c0.6,0,1.2-0.2,1.7-0.5l0.1,0.6C484.5,221.7,483.8,221.9,483.2,221.9z"/>
		<path fill="#FFFFFF" d="M487.1,217.5c0,2.1,1.2,3.6,3,3.6c0.9,0,1.7-0.3,2.3-0.7l0.2,0.7c-0.6,0.4-1.5,0.7-2.5,0.7
			c-2.2,0-3.7-1.8-3.7-4.3s1.5-4.3,3.7-4.3c1.6,0,2.9,1.1,2.9,2.8c0,0.4-0.1,0.9-0.2,1.3l-5.6,0V217.5z M492,216.7
			c0-0.2,0.1-0.4,0.1-0.6c0-1.3-0.8-2.2-2.1-2.2c-1.5,0-2.6,1.2-2.9,2.8H492z"/>
		<path fill="#FFFFFF" d="M495.2,221.8c-0.4,0-0.6-0.3-0.6-0.7c0-0.3,0.3-0.6,0.6-0.6s0.6,0.3,0.6,0.6
			C495.8,221.5,495.5,221.8,495.2,221.8z"/>
		<path fill="#FFFFFF" d="M496.1,225.6c1.4-0.8,1.8-1.5,1.8-3.3c0,0.1,0-8.9,0-8.9l0.7-0.2c0,0,0,9.2,0,9.3c0,1.9-0.6,3-2,3.7
			L496.1,225.6z M498.3,211.4c-0.3,0-0.5-0.3-0.5-0.6c0-0.3,0.2-0.5,0.5-0.5s0.5,0.3,0.5,0.5C498.8,211.1,498.6,211.4,498.3,211.4z"
			/>
		<path fill="#FFFFFF" d="M503.2,221.8c-0.9,0-1.9-0.3-2.5-0.7l0.2-0.7c0.7,0.5,1.5,0.7,2.3,0.7c1,0,2.1-0.6,2.1-1.6
			c0-1.2-1.1-1.5-2.2-1.9c-1.1-0.4-2.3-0.9-2.3-2.3c0-1.5,1.2-2.2,2.6-2.2c0.9,0,1.7,0.3,2.3,0.6l-0.3,0.7c-0.7-0.4-1.4-0.6-2.2-0.6
			c-1.1,0-1.9,0.6-1.9,1.5c0,1.1,1.1,1.4,2.2,1.8c1.1,0.4,2.4,0.9,2.4,2.4C505.9,220.9,504.7,221.8,503.2,221.8z"/>
		<path fill="#FFFFFF" d="M439.2,233c-0.3,0-0.5-0.3-0.5-0.6c0-0.3,0.2-0.5,0.5-0.5s0.5,0.3,0.5,0.5
			C439.8,232.7,439.6,233,439.2,233z M438.9,243.2V235l0.7-0.2v8.4H438.9z"/>
		<path fill="#FFFFFF" d="M452.6,243.2v-5.5c0-1.5-0.6-2.3-1.9-2.3c-0.8,0-1.7,0.5-2.6,1.2c0.1,0.2,0.1,0.6,0.1,1v5.5h-0.7v-5.5
			c0-1.5-0.6-2.3-1.9-2.3c-0.8,0-1.7,0.4-2.5,1.1v6.7h-0.7V235l0.7-0.2c0,0,0,1.1,0,1.1c0.9-0.8,1.9-1.1,2.6-1.1
			c1.1,0,1.9,0.5,2.3,1.4c0.9-1,2.1-1.4,2.8-1.4c1.6,0,2.6,1,2.6,2.8v5.6H452.6z"/>
		<path fill="#FFFFFF" d="M460.4,242.1c-0.5,0.6-1.5,1.3-2.6,1.3c-1.5,0-2.6-0.9-2.6-2.2c0-1.5,1.3-2.7,5.1-2.9c0,0,0-0.7,0-0.8
			c0-1.3-0.6-2.1-2-2.1c-1,0-2.1,0.6-2.8,1.1l-0.2-0.7c0.8-0.5,2-1,3-1c1.6,0,2.7,0.8,2.7,2.7c0,0.1,0,4.5,0,4.5
			c0,0.5,0.1,0.9,0.9,0.9l-0.1,0.6C461,243.4,460.4,243,460.4,242.1L460.4,242.1z M460.3,238.8c-3.2,0.3-4.3,1.1-4.3,2.3
			c0,1,0.9,1.6,1.9,1.6c1,0,1.9-0.6,2.4-1.3V238.8z"/>
		<path fill="#FFFFFF" d="M463.1,241.9c0-0.7,0.7-1.2,1.3-1.5c-0.7-0.5-1.3-1.4-1.3-2.5c0-1.9,1.4-3.1,3.1-3.1
			c0.8,0,1.4,0.2,1.8,0.5l2.4-0.1l0.1,0.8l-2.1-0.1c0.5,0.5,0.8,1.3,0.8,2c0,1.9-1.4,3-3.1,3c-0.5,0-1-0.1-1.3-0.3
			c-0.5,0.3-1,0.6-1,1.1c0,0.5,0.5,0.9,1.9,0.9c0,0,1.5,0,1.4,0c2.3,0,3.3,0.9,3.3,2.1c0,1.8-2.1,2.9-4.2,2.9c-2.3,0-3.6-1-3.6-2.4
			c0-1,0.8-1.8,1.8-2.2C463.6,242.9,463.1,242.5,463.1,241.9z M463.1,245.2c0,1.1,1.1,1.9,3,1.9c1.9,0,3.5-1,3.5-2.2
			c0-1.1-0.9-1.5-2.6-1.5c-0.6,0-1.4,0-2,0C463.9,243.6,463.1,244.4,463.1,245.2z M466.2,240.2c1.4,0,2.3-1,2.3-2.4
			c0-1.4-0.8-2.4-2.3-2.4c-1.5,0-2.3,1.1-2.3,2.5C463.9,239.2,464.7,240.2,466.2,240.2z"/>
		<path fill="#FFFFFF" d="M472.1,239.1c0,2.1,1.2,3.6,3,3.6c0.9,0,1.7-0.3,2.3-0.7l0.2,0.7c-0.6,0.4-1.5,0.7-2.5,0.7
			c-2.2,0-3.7-1.8-3.7-4.3c0-2.5,1.5-4.3,3.7-4.3c1.6,0,2.9,1.1,2.9,2.8c0,0.4-0.1,0.9-0.2,1.3l-5.6,0V239.1z M477.1,238.3
			c0-0.2,0.1-0.4,0.1-0.6c0-1.3-0.8-2.2-2.1-2.2c-1.5,0-2.6,1.2-2.9,2.8H477.1z"/>
		<path fill="#FFFFFF" d="M482,243.4c-0.9,0-1.9-0.3-2.5-0.7l0.2-0.7c0.7,0.5,1.5,0.7,2.3,0.7c1,0,2.1-0.6,2.1-1.6
			c0-1.2-1.1-1.5-2.2-1.9c-1.1-0.4-2.3-0.9-2.3-2.3c0-1.5,1.2-2.2,2.6-2.2c0.9,0,1.7,0.3,2.3,0.6l-0.3,0.7c-0.7-0.4-1.4-0.6-2.2-0.6
			c-1.1,0-1.9,0.6-1.9,1.5c0,1.1,1.1,1.4,2.2,1.8c1.1,0.4,2.4,0.9,2.4,2.4C484.8,242.5,483.5,243.4,482,243.4z"/>
		<path fill="#FFFFFF" d="M490.9,239c0-4.2,2.7-7.2,4.6-8.2l0.4,0.6c-1.9,1-4.3,3.8-4.3,7.6c0,3.9,2.4,6.6,4.3,7.6l-0.4,0.6
			C493.6,246.2,490.9,243.2,490.9,239z"/>
		<path fill="#FFFFFF" d="M500.5,243.4c-2.2,0-4-1.7-4-4.3c0-2.6,1.8-4.3,4.1-4.3c2.2,0,4,1.7,4,4.3
			C504.5,241.7,502.7,243.4,500.5,243.4z M500.5,235.4c-1.9,0-3.3,1.5-3.3,3.6c0,2.3,1.4,3.6,3.3,3.6c1.9,0,3.3-1.5,3.3-3.6
			C503.8,236.8,502.4,235.4,500.5,235.4z"/>
		<path fill="#FFFFFF" d="M509.8,234.9c2.1,0,3.7,1.7,3.7,4.2c0,2.6-1.7,4.3-4,4.3c-0.8,0-1.7-0.3-2.2-0.6v4.6h-0.7v-12.5l0.7-0.2
			v1.2C507.9,235.4,508.8,234.9,509.8,234.9z M507.4,242c0.5,0.4,1.4,0.7,2.3,0.7c1.9,0,3.2-1.5,3.2-3.7c0-2-1.2-3.5-3-3.5
			c-0.9,0-1.8,0.5-2.4,1V242z"/>
		<path fill="#FFFFFF" d="M517.7,243.5c-1.5,0-2.1-1-2-2.6l0.1-5.1l-1.1-0.1l0.1-0.5l1.1-0.1l0.1-2h0.7l-0.1,2h2.9l-0.1,0.6h-2.9
			l-0.1,5.2c0,1.4,0.4,1.9,1.3,1.9c0.6,0,1.2-0.2,1.7-0.5l0.1,0.6C519,243.3,518.3,243.5,517.7,243.5z"/>
		<path fill="#FFFFFF" d="M521.8,233c-0.3,0-0.5-0.3-0.5-0.6c0-0.3,0.2-0.5,0.5-0.5s0.5,0.3,0.5,0.5
			C522.4,232.7,522.1,233,521.8,233z M521.5,243.2V235l0.7-0.2v8.4H521.5z"/>
		<path fill="#FFFFFF" d="M535.2,243.2v-5.5c0-1.5-0.6-2.3-1.9-2.3c-0.8,0-1.7,0.5-2.6,1.2c0.1,0.2,0.1,0.6,0.1,1v5.5H530v-5.5
			c0-1.5-0.6-2.3-1.9-2.3c-0.8,0-1.7,0.4-2.5,1.1v6.7h-0.7V235l0.7-0.2c0,0,0,1.1,0,1.1c0.9-0.8,1.9-1.1,2.6-1.1
			c1.1,0,1.9,0.5,2.3,1.4c0.9-1,2.1-1.4,2.8-1.4c1.6,0,2.6,1,2.6,2.8v5.6H535.2z"/>
		<path fill="#FFFFFF" d="M538.9,233c-0.3,0-0.5-0.3-0.5-0.6c0-0.3,0.2-0.5,0.5-0.5s0.5,0.3,0.5,0.5
			C539.5,232.7,539.2,233,538.9,233z M538.6,243.2V235l0.7-0.2v8.4H538.6z"/>
		<path fill="#FFFFFF" d="M541,243.2v-0.5l5-7.1h-4.9V235h5.8v0.5l-5,7.1h5v0.6H541z"/>
		<path fill="#FFFFFF" d="M548.9,239.1c0,2.1,1.2,3.6,3,3.6c0.9,0,1.7-0.3,2.3-0.7l0.2,0.7c-0.6,0.4-1.5,0.7-2.5,0.7
			c-2.2,0-3.7-1.8-3.7-4.3c0-2.5,1.5-4.3,3.7-4.3c1.6,0,2.9,1.1,2.9,2.8c0,0.4-0.1,0.9-0.2,1.3l-5.6,0V239.1z M553.8,238.3
			c0-0.2,0.1-0.4,0.1-0.6c0-1.3-0.8-2.2-2.1-2.2c-1.5,0-2.6,1.2-2.9,2.8H553.8z"/>
		<path fill="#FFFFFF" d="M555.3,246.6c1.9-1,4.3-3.8,4.3-7.6c0-3.9-2.4-6.6-4.3-7.6l0.4-0.6c1.9,1,4.6,4,4.6,8.2
			c0,4.2-2.7,7.2-4.6,8.2L555.3,246.6z"/>
	</g>
</g>
<g id="files.zip">
	<g>
		<path fill="#FFFFFF" d="M678.5,189.1c-0.4-0.2-0.8-0.3-1.2-0.3c-0.8,0-1.1,0.5-1.1,1.5v0.9h2.4l-0.1,1.7h-2.3v6.5h-2.1v-6.5
			l-1.4-0.1l0.1-1.4l1.4-0.4l0-0.9c0.1-2.4,1.1-3.3,3-3.3c0.7,0,1.4,0.2,1.8,0.4C679,187.3,678.5,189.1,678.5,189.1z M680.8,189.7
			c-0.8,0-1.3-0.5-1.3-1.3c0-0.8,0.5-1.3,1.3-1.3c0.8,0,1.3,0.5,1.3,1.3C682.2,189.2,681.7,189.7,680.8,189.7z M679.8,199.4v-8.2
			l2.1-0.3v8.6H679.8z"/>
		<path fill="#FFFFFF" d="M684.1,199.4v-12l2.1-0.3v12.3H684.1z"/>
		<path fill="#FFFFFF" d="M690.1,195.7c0.1,1.4,1,2.3,2.5,2.3c0.9,0,1.8-0.3,2.6-0.8l0.3,1.8c-0.8,0.4-1.9,0.7-3,0.7
			c-2.7,0-4.4-1.7-4.4-4.3c0-2.7,1.8-4.5,4.3-4.5c2.2,0,3.4,1.3,3.4,3.4c0,0.5-0.1,1-0.2,1.4C695.5,195.6,690.1,195.7,690.1,195.7
			L690.1,195.7z M693.7,194.4c0,0,0-0.1,0-0.1c0-1.1-0.5-1.8-1.6-1.8c-1.2,0-1.9,1-2,2L693.7,194.4z"/>
		<path fill="#FFFFFF" d="M700.1,199.7c-1.1,0-2.4-0.3-3.2-0.8l0.5-1.7c0.8,0.5,1.9,0.8,2.8,0.8c0.8,0,1.4-0.3,1.4-0.9
			c0-0.6-0.7-0.9-1.7-1.1c-1.6-0.4-2.8-1-2.8-2.6s1.3-2.6,3.3-2.6c1,0,2.3,0.3,3,0.7l-0.5,1.7c-0.8-0.4-1.9-0.7-2.6-0.7
			c-0.8,0-1.2,0.3-1.2,0.8c0,0.6,0.7,0.8,1.7,1.1c1.6,0.4,2.8,1,2.8,2.6C703.5,198.6,702.2,199.7,700.1,199.7z"/>
		<path fill="#FFFFFF" d="M706.4,199.7c-0.8,0-1.4-0.6-1.4-1.4c0-0.8,0.6-1.4,1.4-1.4c0.8,0,1.4,0.6,1.4,1.4
			C707.8,199.1,707.2,199.7,706.4,199.7z"/>
		<path fill="#FFFFFF" d="M708.9,199.4V198l4.3-5h-4.2v-1.8h6.9v1.4l-4.4,5.1h4.4v1.8H708.9z"/>
		<path fill="#FFFFFF" d="M718.6,189.6c-0.8,0-1.3-0.5-1.3-1.3c0-0.8,0.5-1.3,1.3-1.3c0.8,0,1.3,0.5,1.3,1.3
			C719.9,189.1,719.4,189.6,718.6,189.6z M717.5,199.4v-8.2l2.1-0.3v8.6H717.5z"/>
		<path fill="#FFFFFF" d="M726.4,190.8c2.2,0,3.6,1.8,3.6,4.3c0,2.6-1.8,4.5-4.2,4.5c-0.5,0-1.2-0.1-1.8-0.2v3.9h-2.1v-12.2l2.1-0.3
			c0,0,0,1,0,1C724.6,191.4,725.4,190.8,726.4,190.8z M724.1,197.5c0.4,0.3,0.9,0.5,1.6,0.5c1.4,0,2.2-1.2,2.2-2.7
			c0-1.6-0.8-2.6-2.1-2.6c-0.7,0-1.2,0.3-1.7,0.7C724.1,193.3,724.1,197.5,724.1,197.5z"/>
	</g>
</g>
<g id="Group_1_1_">
	<g id="arrow_copy">
		<g>
			<polygon fill="#FFFFFF" points="639.6,184.5 633.3,184.5 642.2,193.7 618.7,193.7 618.7,198.3 642.2,198.3 633.3,207.5 
				639.6,207.5 650.7,196 			"/>
		</g>
	</g>
	<g id="Ellipse_1_xA0_Image_1_">
	</g>
</g>
<g id="Layer_22">
	<path fill="#FFFFFF" d="M586.7,152.6v5.4c17.8,3.4,31.3,19.1,31.3,38c0,18.8-13.5,34.5-31.3,38v5.4c20.8-3.5,36.7-21.6,36.7-43.4
		S607.5,156.1,586.7,152.6z"/>
</g>
</svg>
